<svg width="30" height="30" viewBox="0 0 30 30" fill="none" xmlns="http://www.w3.org/2000/svg">
<path fill-rule="evenodd" clip-rule="evenodd" d="M27.5092 8.48879C28.5142 9.26729 29.1307 10.4238 29.2357 11.6823L29.2507 11.9838V24.1473C29.2507 27.2823 26.7742 29.8323 23.6707 29.9973H20.6857C19.2592 29.9688 18.1057 28.8588 18.0007 27.4638L17.9857 27.2523V22.9638C17.9857 22.4973 17.6392 22.1088 17.1757 22.0323L17.0407 22.0173H13.0342C12.5557 22.0323 12.1657 22.3773 12.1057 22.8273L12.0907 22.9638V27.2388C12.0907 27.3273 12.0742 27.4323 12.0607 27.5073L12.0457 27.5388L12.0292 27.6423C11.8507 28.9188 10.8007 29.8923 9.49567 29.9838L9.30067 29.9973H6.61567C3.48067 29.9973 0.915671 27.5388 0.750671 24.4473V11.9838C0.764171 10.7073 1.32067 9.52229 2.25067 8.69729L11.5957 1.18229C13.5007 -0.331212 16.1707 -0.391212 18.1342 1.00229L18.3757 1.18229L27.5092 8.48879ZM27.1493 24.3874L27.1658 24.1474V11.9974C27.1493 11.3539 26.8808 10.7524 26.4158 10.3039L26.2208 10.1374L17.0708 2.81742C15.9308 1.90242 14.3108 1.85892 13.1108 2.65242L12.8843 2.81742L3.76425 10.1689C3.24075 10.5574 2.92575 11.1424 2.85075 11.7574L2.83425 11.9974V24.1474C2.83425 26.1424 4.39425 27.7774 6.37575 27.8974H9.30075C9.63075 27.8974 9.91575 27.6739 9.95925 27.3589L9.99075 27.0889L10.0058 27.0124V22.9639C10.0058 21.3589 11.2358 20.0539 12.8108 19.9324H17.0408C18.6443 19.9324 19.9493 21.1639 20.0708 22.7389V27.2524C20.0708 27.5674 20.2958 27.8389 20.5958 27.8974H23.3843C25.3943 27.8974 27.0292 26.3539 27.1493 24.3874Z" fill="white"/>
</svg>
